<svg xmlns="http://www.w3.org/2000/svg" viewBox="0 0 25.2 27.08"><defs><style>.cls-1{fill:#5e5a57;}</style></defs><g id="Calque_2" data-name="Calque 2"><g id="Calque_1-2" data-name="Calque 1"><path class="cls-1" d="M24.38,6.47A4.61,4.61,0,0,0,24,5,4.1,4.1,0,0,0,19.31,2,5.29,5.29,0,0,0,16.84.22a4.15,4.15,0,0,0-4.43,1.21l0,0a5.64,5.64,0,0,0-9,2.73c-.07.19-.17.37-.23.57v0A3.47,3.47,0,0,0,.45,7.54a2.09,2.09,0,0,0,0,.25A5.41,5.41,0,0,0,.91,13,5.32,5.32,0,0,0,5.6,15.56l.12.17a81.47,81.47,0,0,1,5.11,7.87,9.18,9.18,0,0,1-.43,1.48c-.46,1.3,0,2,1.35,2h.66a1,1,0,0,0,1-1.43,12.38,12.38,0,0,1-.47-1.54,2.21,2.21,0,0,1,0-.34c.78-1.48,2.52-2.35,3.5-3.69a8.6,8.6,0,0,0,1.31-2.71c0-.05,0-.1,0-.15a4,4,0,0,0,1.87-.62,3.71,3.71,0,0,0,1.64-2.68.69.69,0,0,1,.6-.43,3.67,3.67,0,0,0,3.29-3.38,5.81,5.81,0,0,0-.78-3.53ZM7.45,16.22l-.09-.12.15.14a13.3,13.3,0,0,1,1.27,1.33l0,0a5.66,5.66,0,0,1,.65,1.57C8.81,18.18,8.14,17.19,7.45,16.22Zm5,3.77a.78.78,0,0,1-.51.4c-.39.06-1.29-1.89-1.61-2.55v0l2.13-.13.84-.06h.06a1,1,0,0,1-.08.22C13,18.27,12.81,19.39,12.41,20Zm2.55.06c-.57.6-1.21,1.12-1.8,1.67a18.17,18.17,0,0,1,1.22-4.25c.1-.21.2-.42.31-.62a.6.6,0,0,1,.34-.3,6.6,6.6,0,0,0,1.59.57h0A7.31,7.31,0,0,1,15,20.05Z"/></g></g></svg>