<svg xmlns="http://www.w3.org/2000/svg" viewBox="0 0 36.88 35.09"><defs><style>.cls-1{fill:#5e5a57;}</style></defs><g id="Calque_2" data-name="Calque 2"><g id="Calque_1-2" data-name="Calque 1"><polygon class="cls-1" points="17.89 35.09 36.88 22.3 34.13 21.06 15.41 33.17 17.89 35.09"/><polygon class="cls-1" points="3.99 21.06 0 22.57 13.49 32.07 18.03 29.31 3.99 21.06"/><polygon class="cls-1" points="25.6 24.77 33.03 20.37 30.28 19.41 26.98 23.09 25.6 24.77"/><path class="cls-1" d="M32.27,7.5A7.64,7.64,0,0,0,17,7.5a7.35,7.35,0,0,0,.49,2.66L17,10.05a45.6,45.6,0,0,0,3.36,6,30,30,0,0,0,4.27,5,30.19,30.19,0,0,0,4.79-5.35c2.73-3.69,2.85-5.66,2.85-5.66l-.47,0A7.27,7.27,0,0,0,32.27,7.5ZM24.63,13A5.58,5.58,0,0,1,19,7.5a5.64,5.64,0,0,1,11.27,0A5.58,5.58,0,0,1,24.63,13Z"/><polygon class="cls-1" points="8.93 20.9 18.29 18.68 16.24 16.49 7.16 19.96 8.98 21.11 8.93 20.9"/><polygon class="cls-1" points="20.03 20.54 11.34 22.59 20.04 28.07 24.64 25.46 20.03 20.54"/></g></g></svg>